<svg width="28" height="23" viewBox="0 0 28 23" fill="none" xmlns="http://www.w3.org/2000/svg">
<g clip-path="url(#clip0_4001_4108)">
<path d="M2.24435 1.78243C2.12284 1.38644 1.70332 1.16393 1.30733 1.28544C0.911342 1.40695 0.688831 1.82646 0.81034 2.22245L2.24435 1.78243ZM6.88869 15.5557L7.28059 14.9162L6.88869 15.5557ZM3.8013 9.56654L4.52082 9.3549L3.8013 9.56654ZM6.6863 15.4256L7.10524 14.8036L6.6863 15.4256ZM25.1739 10.0164L25.8934 10.2281L25.1739 10.0164ZM22.7783 15.1635L22.3098 14.5778L22.7783 15.1635ZM21.8228 15.7775L22.1636 16.4456L21.8228 15.7775ZM25.0872 6.36208L25.5444 5.76754L25.0872 6.36208ZM25.4941 6.78254L26.1072 6.35052L25.4941 6.78254ZM16.1525 9.50244C15.7382 9.50244 15.4025 9.83823 15.4025 10.2524C15.4025 10.6667 15.7382 11.0024 16.1525 11.0024L16.1525 9.50244ZM19.5275 12.2524C19.1132 12.2524 18.7775 12.5882 18.7775 13.0024C18.7775 13.4167 19.1132 13.7524 19.5275 13.7524V12.2524ZM2.71167 6.61209H21.153V5.11209H2.71167V6.61209ZM15.1216 15.7261H14.5538V17.2261H15.1216V15.7261ZM4.52082 9.3549L3.43119 5.65045L1.99215 6.07373L3.08178 9.77818L4.52082 9.3549ZM3.42867 5.64208L2.24435 1.78243L0.81034 2.22245L1.99467 6.0821L3.42867 5.64208ZM14.5538 15.7261C12.4849 15.7261 10.9857 15.7253 9.81434 15.6144C8.6538 15.5045 7.89345 15.2918 7.28059 14.9162L6.49679 16.1952C7.3858 16.74 8.4036 16.9875 9.67293 17.1077C10.9314 17.2269 12.5139 17.2261 14.5538 17.2261V15.7261ZM3.08178 9.77818C3.55485 11.3865 3.92927 12.6652 4.37558 13.6585C4.8343 14.6795 5.39372 15.4594 6.26735 16.0477L7.10524 14.8036C6.53032 14.4164 6.12606 13.8945 5.74383 13.0438C5.34918 12.1654 5.00538 11.0023 4.52082 9.3549L3.08178 9.77818ZM7.28059 14.9162C7.22097 14.8797 7.16251 14.8421 7.10524 14.8036L6.26735 16.0477C6.34256 16.0984 6.41906 16.1475 6.49679 16.1952L7.28059 14.9162ZM15.1216 17.2261C16.8864 17.2261 18.2554 17.2267 19.3532 17.1363C20.4602 17.045 21.3561 16.8575 22.1636 16.4456L21.4819 15.1094C20.92 15.3961 20.2426 15.5579 19.23 15.6413C18.2081 15.7255 16.9113 15.7261 15.1216 15.7261V17.2261ZM22.3098 14.5778C22.0607 14.777 21.7834 14.9556 21.4819 15.1094L22.1636 16.4456C22.5518 16.2475 22.9152 16.0144 23.2468 15.7492L22.3098 14.5778ZM21.153 6.61209C22.2636 6.61209 23.0403 6.61297 23.623 6.67091C24.2047 6.72874 24.4716 6.83487 24.63 6.95663L25.5444 5.76754C25.0525 5.38931 24.447 5.24544 23.7714 5.17827C23.097 5.11121 22.2317 5.11209 21.153 5.11209V6.61209ZM25.8934 10.2281C26.1418 9.38367 26.3536 8.67043 26.435 8.09005C26.5198 7.48596 26.4854 6.88725 26.1072 6.35052L24.8811 7.21456C24.948 7.30958 25.0087 7.46044 24.9496 7.88167C24.8872 8.3266 24.7163 8.91444 24.4544 9.8048L25.8934 10.2281ZM24.63 6.95663C24.734 7.0366 24.8175 7.12432 24.8811 7.21456L26.1072 6.35052C25.9515 6.1295 25.7607 5.9339 25.5444 5.76754L24.63 6.95663ZM24.0275 12.2524H19.5275V13.7524H24.0275V12.2524ZM25.1045 9.50244L16.1525 9.50244L16.1525 11.0024L25.1045 11.0024V9.50244ZM24.4544 9.8048C24.4309 9.8846 24.4078 9.96318 24.385 10.0406L25.824 10.4643C25.8468 10.3866 25.87 10.3079 25.8934 10.2281L24.4544 9.8048ZM24.385 10.0406C24.0497 11.1796 23.7912 12.041 23.5215 12.7286L24.918 13.2763C25.2163 12.5156 25.4934 11.5871 25.824 10.4643L24.385 10.0406ZM23.5215 12.7286C23.1629 13.6431 22.8118 14.1763 22.3098 14.5778L23.2468 15.7492C24.0328 15.1204 24.5087 14.32 24.918 13.2763L23.5215 12.7286ZM24.0275 13.7524H24.2198V12.2524H24.0275V13.7524Z" fill="#2D264B"/>
<path d="M10.8748 21.1166C10.8748 21.6979 10.4035 22.1692 9.82216 22.1692C9.24081 22.1692 8.76953 21.6979 8.76953 21.1166C8.76953 20.5352 9.24081 20.064 9.82216 20.064C10.4035 20.064 10.8748 20.5352 10.8748 21.1166Z" fill="#2D264B"/>
<path d="M17.1906 21.1166C17.1906 21.6979 16.7193 22.1692 16.138 22.1692C15.5566 22.1692 15.0853 21.6979 15.0853 21.1166C15.0853 20.5352 15.5566 20.064 16.138 20.064C16.7193 20.064 17.1906 20.5352 17.1906 21.1166Z" fill="#2D264B"/>
</g>
<defs>
<clipPath id="clip0_4001_4108">
<rect width="27" height="22" fill="white" transform="translate(0.402344 0.168945)"/>
</clipPath>
</defs>
</svg>
